<svg xmlns="http://www.w3.org/2000/svg" viewBox="0 0 73.8 70.14"><defs><style>.cls-1{fill:#b7b7b7;stroke:#b7b7b7;stroke-miterlimit:10;stroke-width:2px;fill-rule:evenodd;}</style></defs><g id="Capa_2" data-name="Capa 2"><g id="Capa_1-2" data-name="Capa 1"><path class="cls-1" d="M27.38,39.47H6.5A5.49,5.49,0,0,0,1,45V63.65a5.49,5.49,0,0,0,5.5,5.49H27.38a5.49,5.49,0,0,0,5.49-5.49V45A5.49,5.49,0,0,0,27.38,39.47Zm3.3,24.18a3.31,3.31,0,0,1-3.3,3.3H6.5a3.3,3.3,0,0,1-3.3-3.3V45a3.29,3.29,0,0,1,3.3-3.29H27.38A3.3,3.3,0,0,1,30.68,45Z"/><path class="cls-1" d="M27.38,1H6.5A5.5,5.5,0,0,0,1,6.5V25.18a5.5,5.5,0,0,0,5.5,5.5H27.38a5.5,5.5,0,0,0,5.49-5.5V6.5A5.49,5.49,0,0,0,27.38,1Zm3.3,24.18a3.31,3.31,0,0,1-3.3,3.3H6.5a3.3,3.3,0,0,1-3.3-3.3V6.5A3.3,3.3,0,0,1,6.5,3.2H27.38a3.3,3.3,0,0,1,3.3,3.3Z"/><path class="cls-1" d="M67.3,39.47H46.42A5.49,5.49,0,0,0,40.92,45V63.65a5.49,5.49,0,0,0,5.5,5.49H67.3a5.5,5.5,0,0,0,5.5-5.49V45A5.5,5.5,0,0,0,67.3,39.47Zm3.3,24.18A3.3,3.3,0,0,1,67.3,67H46.42a3.3,3.3,0,0,1-3.3-3.3V45a3.29,3.29,0,0,1,3.3-3.29H67.3A3.29,3.29,0,0,1,70.6,45Z"/><path class="cls-1" d="M67.3,1H46.42a5.5,5.5,0,0,0-5.5,5.5V25.18a5.5,5.5,0,0,0,5.5,5.5H67.3a5.51,5.51,0,0,0,5.5-5.5V6.5A5.5,5.5,0,0,0,67.3,1Zm3.3,24.18a3.3,3.3,0,0,1-3.3,3.3H46.42a3.3,3.3,0,0,1-3.3-3.3V6.5a3.3,3.3,0,0,1,3.3-3.3H67.3a3.3,3.3,0,0,1,3.3,3.3Z"/></g></g></svg>