<svg xmlns="http://www.w3.org/2000/svg" viewBox="0 0 119.12 119.12"><defs><style>.cls-1{fill:none;stroke-linecap:round;stroke-linejoin:round;stroke-width:4px;}.cls-1,.cls-2{stroke:#b7b7b7;}.cls-2{fill:#b7b7b7;stroke-miterlimit:10;stroke-width:1.7px;}</style></defs><g id="Capa_2" data-name="Capa 2"><g id="Capa_1-2" data-name="Capa 1"><circle class="cls-1" cx="59.56" cy="59.56" r="57.56"/><path class="cls-2" d="M39.22,40H55.46a1.45,1.45,0,1,0,0-2.9H39.22A7.89,7.89,0,0,0,31.34,45l-.05,35a7.87,7.87,0,0,0,7.86,7.88l35,.06h0A7.89,7.89,0,0,0,82,80V63.66a1.45,1.45,0,0,0-2.9,0V80a5,5,0,0,1-5,5h0l-35-.06a5,5,0,0,1-5-5L34.24,45A5,5,0,0,1,39.22,40Z"/><path class="cls-2" d="M86.39,46.93a1.45,1.45,0,0,0,1.45-1.45V32.74a1.45,1.45,0,0,0-1.45-1.45H73.65a1.45,1.45,0,0,0,0,2.9H82.6L57.09,59.7a1.44,1.44,0,0,0,0,2,1.41,1.41,0,0,0,1,.43,1.45,1.45,0,0,0,1-.43L84.94,36v9.53A1.45,1.45,0,0,0,86.39,46.93Z"/></g></g></svg>