<svg xmlns="http://www.w3.org/2000/svg" viewBox="0 0 82.35 53.28"><defs><style>.cls-1{fill:#b7b7b7;fill-rule:evenodd;}</style></defs><g id="Capa_2" data-name="Capa 2"><g id="Capa_1-2" data-name="Capa 1"><path class="cls-1" d="M41.17,11.08a16.45,16.45,0,0,0-6.74,1.43l4.86,3.56a13,13,0,0,1,1.88-.14,11.66,11.66,0,0,1,11.55,10l4.86,3.56A16.56,16.56,0,0,0,41.17,11.08ZM47,37.72A11.67,11.67,0,0,1,29.5,27.59a11.26,11.26,0,0,1,.27-2.47l-4.16-3.05a16.33,16.33,0,0,0-.95,5.52A16.52,16.52,0,0,0,51.14,40.76Zm10.69,7.81L56.88,45a39.18,39.18,0,0,1-15.71,3.26c-13,0-24.87-6.21-35.68-18.82A71.63,71.63,0,0,1,16.87,16.91l.78-.65-4-3A79.69,79.69,0,0,0,.44,28.11,2.43,2.43,0,0,0,.55,31c12,14.61,25.57,22,40.62,22a44,44,0,0,0,20.15-4.85ZM77.32,48.9,11.12.46A2.42,2.42,0,0,0,8.26,4.37l66.2,48.44a2.42,2.42,0,0,0,3.39-.52A2.45,2.45,0,0,0,77.32,48.9Z"/><path class="cls-1" d="M81.8,31a77.12,77.12,0,0,1-9.13,9.46l-2-1.47-2-1.47a69.38,69.38,0,0,0,8.2-8.17C66,14.55,54.14,7.26,41.17,7.26a33.53,33.53,0,0,0-11.27,2L25.29,5.83A38.73,38.73,0,0,1,41.17,2.42c15.15,0,28.75,8.66,40.73,25.69A2.42,2.42,0,0,1,81.8,31Z"/></g></g></svg>