<svg xmlns="http://www.w3.org/2000/svg" viewBox="0 0 587.12 169.2"><defs><style>.cls-1{fill:#fff;}</style></defs><g id="Capa_2" data-name="Capa 2"><g id="Capa_1-2" data-name="Capa 1"><path class="cls-1" d="M93.63,36V47.12H32v43H86.32v11.15H32v65.07H0V36Z"/><path class="cls-1" d="M113.81,36h31.91V166.31H113.81Z"/><path class="cls-1" d="M312.84,35.92V83.21a117.33,117.33,0,0,1-4.54,33.55,78.39,78.39,0,0,1-13.22,26.34,59.85,59.85,0,0,1-21.34,17.16q-12.66,6.11-28.89,6.1a72.31,72.31,0,0,1-27.41-5.19A64.46,64.46,0,0,1,195,146a71.11,71.11,0,0,1-15.11-24.46q-5.5-14.52-5.51-33.26V35.92Zm-121,13.4V71.51a75.89,75.89,0,0,0,3.46,23.14,56.57,56.57,0,0,0,10.19,19A48.17,48.17,0,0,0,222,126.51a51.44,51.44,0,0,0,22.49,4.7,46.91,46.91,0,0,0,20.33-4.45A48.93,48.93,0,0,0,281,114.4a58.42,58.42,0,0,0,10.71-18.87,71.27,71.27,0,0,0,3.9-24V49.32Z"/><path class="cls-1" d="M337.87,36h32v83.82a41.91,41.91,0,0,0,2.36,14.13A34.88,34.88,0,0,0,379,145.5a31.94,31.94,0,0,0,10.57,7.84,32.83,32.83,0,0,0,14,2.88,32,32,0,0,0,13.74-2.88,31.58,31.58,0,0,0,10.48-7.84,35.47,35.47,0,0,0,6.68-11.58,41.9,41.9,0,0,0,2.35-14.13V36H457v83.82a53.39,53.39,0,0,1-3.41,19.08,41,41,0,0,1-10.72,15.72,52.64,52.64,0,0,1-18.74,10.67q-11.44,3.93-27.5,3.94a75.08,75.08,0,0,1-25.32-3.94,53.61,53.61,0,0,1-18.41-10.72,44.69,44.69,0,0,1-11.2-15.81,49.2,49.2,0,0,1-3.8-19.23Z"/><path class="cls-1" d="M536,168.23a69,69,0,0,1-20.52-2.74,46.25,46.25,0,0,1-15-7.54,36.79,36.79,0,0,1-9.8-11.49,46.32,46.32,0,0,1-5-14.66h22.21a38.18,38.18,0,0,0,3.36,9.14,26.5,26.5,0,0,0,5.62,7.35,25,25,0,0,0,8.08,4.9A30.1,30.1,0,0,0,535.79,155a38.25,38.25,0,0,0,8-.86,22.69,22.69,0,0,0,7.16-2.84,15.41,15.41,0,0,0,5.09-5.1,14.51,14.51,0,0,0,1.93-7.73,18.31,18.31,0,0,0-3-10.29,33.56,33.56,0,0,0-7.89-8.22A73.8,73.8,0,0,0,536,113.06q-6.24-3.16-12.78-6.39t-12.79-6.78A64.88,64.88,0,0,1,499.26,92a36.35,36.35,0,0,1-7.88-9.9,26.17,26.17,0,0,1-3-12.64,30.82,30.82,0,0,1,3.41-14.37,33.75,33.75,0,0,1,9.86-11.44A48.67,48.67,0,0,1,517.43,36a75.31,75.31,0,0,1,21.24-2.74A55.28,55.28,0,0,1,556.46,36a47.19,47.19,0,0,1,14.08,7.45,45.2,45.2,0,0,1,10.24,11.15,53.84,53.84,0,0,1,6.34,13.7H567a68.26,68.26,0,0,0-4-8.85,29.23,29.23,0,0,0-5.67-7.4A25,25,0,0,0,549.15,47a31.63,31.63,0,0,0-11.44-1.87,29.85,29.85,0,0,0-10.52,1.63,19.69,19.69,0,0,0-6.87,4.19,15,15,0,0,0-3.75,5.67,17.54,17.54,0,0,0-1.16,6.1,15.65,15.65,0,0,0,3.08,9.42A36,36,0,0,0,526.61,80a88.66,88.66,0,0,0,11.49,7q6.43,3.32,13.12,6.68t13.12,7.07a71.62,71.62,0,0,1,11.49,8.12,38.39,38.39,0,0,1,8.12,9.81A23.94,23.94,0,0,1,587,130.75a33.93,33.93,0,0,1-3.27,14.8,33.28,33.28,0,0,1-9.71,11.87,48.17,48.17,0,0,1-16,7.93A76.62,76.62,0,0,1,536,168.23Z"/><circle class="cls-1" cx="200.44" cy="8.63" r="8.63"/><circle class="cls-1" cx="287" cy="8.63" r="8.63"/></g></g></svg>