<svg xmlns="http://www.w3.org/2000/svg" viewBox="0 0 587.12 135.92"><defs><style>.cls-1{fill:#fff;}</style></defs><g id="Capa_2" data-name="Capa 2"><g id="Capa_1-2" data-name="Capa 1"><path class="cls-1" d="M93.63,2.69V13.84H32v43H86.32V68H32V133H0V2.69Z"/><path class="cls-1" d="M113.81,2.69h31.91V133H113.81Z"/><path class="cls-1" d="M178.4,2.2h47.3a123.38,123.38,0,0,1,33.54,4.31,80.25,80.25,0,0,1,26.34,12.54,57.46,57.46,0,0,1,17.16,20.24q6.11,12,6.1,27.41a65.46,65.46,0,0,1-5.19,26A60.88,60.88,0,0,1,288.51,114a71.73,71.73,0,0,1-24.46,14.34q-14.52,5.22-33.26,5.22H178.4ZM191.8,117H214a79.5,79.5,0,0,0,23.14-3.28,57.49,57.49,0,0,0,19-9.67A46.12,46.12,0,0,0,269,88.38,46.71,46.71,0,0,0,273.69,67a42.39,42.39,0,0,0-4.45-19.28,46.91,46.91,0,0,0-12.35-15.37A59.35,59.35,0,0,0,238,22.23a74.63,74.63,0,0,0-24-3.7H191.8Z"/><path class="cls-1" d="M337.87,2.69h32V86.51a41.91,41.91,0,0,0,2.36,14.13A34.93,34.93,0,0,0,379,112.23a31.77,31.77,0,0,0,10.57,7.83,32.83,32.83,0,0,0,14,2.88,32,32,0,0,0,13.74-2.88,31.42,31.42,0,0,0,10.48-7.83,35.51,35.51,0,0,0,6.68-11.59,41.9,41.9,0,0,0,2.35-14.13V2.69H457V86.51a53.39,53.39,0,0,1-3.41,19.08,40.91,40.91,0,0,1-10.72,15.72A52.64,52.64,0,0,1,424.1,132q-11.44,3.95-27.5,3.94A74.84,74.84,0,0,1,371.28,132a53.61,53.61,0,0,1-18.41-10.72,44.69,44.69,0,0,1-11.2-15.81,49.13,49.13,0,0,1-3.8-19.23Z"/><path class="cls-1" d="M536,135a69.36,69.36,0,0,1-20.52-2.74,46.47,46.47,0,0,1-15-7.55,36.87,36.87,0,0,1-9.8-11.48,46.4,46.4,0,0,1-5-14.66h22.21a38.11,38.11,0,0,0,3.36,9.13A26.5,26.5,0,0,0,516.9,115a25,25,0,0,0,8.08,4.91,30.32,30.32,0,0,0,10.81,1.77,38.25,38.25,0,0,0,8-.86A22.45,22.45,0,0,0,551,118a15.48,15.48,0,0,0,5.09-5.09,14.54,14.54,0,0,0,1.93-7.74,18.36,18.36,0,0,0-3-10.29,33.35,33.35,0,0,0-7.89-8.21A73.82,73.82,0,0,0,536,79.78q-6.24-3.16-12.78-6.39t-12.79-6.78a64.88,64.88,0,0,1-11.15-7.93,36.35,36.35,0,0,1-7.88-9.9,26.14,26.14,0,0,1-3-12.64,30.82,30.82,0,0,1,3.41-14.37,33.75,33.75,0,0,1,9.86-11.44,48.88,48.88,0,0,1,15.76-7.59A75.31,75.31,0,0,1,538.67,0a55.55,55.55,0,0,1,17.79,2.69,47.42,47.42,0,0,1,14.08,7.45,45.2,45.2,0,0,1,10.24,11.15A53.84,53.84,0,0,1,587.12,35H567a68.13,68.13,0,0,0-4-8.84,29.29,29.29,0,0,0-5.67-7.41,25,25,0,0,0-8.17-5,31.4,31.4,0,0,0-11.44-1.88,29.61,29.61,0,0,0-10.52,1.64,19.68,19.68,0,0,0-6.87,4.18,15.18,15.18,0,0,0-3.75,5.67,17.54,17.54,0,0,0-1.16,6.1,15.63,15.63,0,0,0,3.08,9.42,36,36,0,0,0,8.12,7.89,90.94,90.94,0,0,0,11.49,7q6.43,3.31,13.12,6.68t13.12,7.06a72.26,72.26,0,0,1,11.49,8.12A38.39,38.39,0,0,1,584,85.36,24,24,0,0,1,587,97.47a33.93,33.93,0,0,1-3.27,14.8,33.28,33.28,0,0,1-9.71,11.87,48.17,48.17,0,0,1-16,7.93A76.26,76.26,0,0,1,536,135Z"/></g></g></svg>